<svg width="598" height="142" viewBox="0 0 598 142" fill="none" xmlns="http://www.w3.org/2000/svg">
<path d="M223.8 106.193V12.2864H246.312L270.625 84.9679C270.367 81.7948 270.067 78.15 269.724 74.0335C269.381 69.8313 269.081 65.6719 268.824 61.5554C268.652 57.3532 268.566 53.7942 268.566 50.8783V12.2864H285.547V106.193H263.035L238.979 33.512C239.237 36.2563 239.494 39.5151 239.751 43.2886C240.008 47.062 240.223 50.8783 240.394 54.7375C240.652 58.5967 240.78 62.0271 240.78 65.0287V106.193H223.8Z" fill="white"/>
<path d="M331.807 107.48C325.547 107.48 320.101 106.322 315.47 104.007C310.839 101.605 307.237 98.3035 304.664 94.1013C302.177 89.8133 300.933 84.8392 300.933 79.1791V39.3007C300.933 33.6406 302.177 28.7094 304.664 24.5072C307.237 20.2192 310.839 16.9174 315.47 14.6019C320.101 12.2006 325.547 11 331.807 11C338.153 11 343.599 12.2006 348.144 14.6019C352.775 16.9174 356.334 20.2192 358.821 24.5072C361.394 28.7094 362.681 33.6406 362.681 39.3007V79.1791C362.681 84.8392 361.394 89.8133 358.821 94.1013C356.334 98.3035 352.775 101.605 348.144 104.007C343.599 106.322 338.153 107.48 331.807 107.48ZM331.807 90.7567C335.666 90.7567 338.539 89.7704 340.426 87.798C342.398 85.7397 343.385 82.8668 343.385 79.1791V39.3007C343.385 35.5273 342.441 32.6544 340.555 30.6819C338.668 28.7094 335.752 27.7232 331.807 27.7232C327.862 27.7232 324.946 28.7094 323.059 30.6819C321.173 32.6544 320.229 35.5273 320.229 39.3007V79.1791C320.229 82.8668 321.173 85.7397 323.059 87.798C325.032 89.7704 327.948 90.7567 331.807 90.7567Z" fill="white"/>
<path d="M378.453 106.193V12.2864H408.941C415.458 12.2864 421.119 13.5299 425.921 16.0169C430.809 18.504 434.583 22.0201 437.241 26.5654C439.986 31.0249 441.358 36.2992 441.358 42.3881V75.9631C441.358 81.9663 439.986 87.2405 437.241 91.7858C434.583 96.3311 430.809 99.8901 425.921 102.463C421.119 104.95 415.458 106.193 408.941 106.193H378.453ZM397.749 88.1839H408.941C412.886 88.1839 416.059 87.069 418.46 84.8392C420.861 82.6095 422.062 79.6508 422.062 75.9631V42.3881C422.062 38.7862 420.861 35.8704 418.46 33.6406C416.059 31.4108 412.886 30.296 408.941 30.296H397.749V88.1839Z" fill="white"/>
<path d="M486.074 107.48C476.555 107.48 469.008 104.907 463.434 99.7615C457.945 94.6159 455.201 87.5836 455.201 78.6645V12.2864H474.497V78.5359C474.497 82.4808 475.483 85.5253 477.455 87.6693C479.514 89.7276 482.387 90.7567 486.074 90.7567C489.676 90.7567 492.506 89.7276 494.564 87.6693C496.623 85.5253 497.652 82.4808 497.652 78.5359V12.2864H516.948V78.6645C516.948 87.4978 514.161 94.5301 508.586 99.7615C503.098 104.907 495.594 107.48 486.074 107.48Z" fill="white"/>
<path d="M533.106 106.193V12.2864H565.137C571.741 12.2864 577.487 13.5299 582.375 16.0169C587.349 18.504 591.166 21.9773 593.824 26.4368C596.568 30.8963 597.941 36.1276 597.941 42.1308C597.941 48.0483 596.568 53.2796 593.824 57.8249C591.08 62.2844 587.264 65.7577 582.375 68.2447C577.487 70.7317 571.741 71.9753 565.137 71.9753H552.402V106.193H533.106ZM552.402 54.6089H565.137C569.254 54.6089 572.513 53.494 574.914 51.2643C577.401 48.9487 578.645 45.9043 578.645 42.1308C578.645 38.3574 577.401 35.3558 574.914 33.126C572.513 30.8105 569.254 29.6528 565.137 29.6528H552.402V54.6089Z" fill="white"/>
<path d="M227.938 137.079C226.238 137.079 224.938 136.612 224.038 135.678C223.138 134.728 222.688 133.445 222.688 131.829V118.579H224.938V131.829C224.938 132.829 225.18 133.62 225.663 134.204C226.163 134.787 226.922 135.079 227.938 135.079C228.938 135.079 229.688 134.787 230.188 134.204C230.688 133.62 230.938 132.829 230.938 131.829V118.579H233.188V131.829C233.188 133.462 232.738 134.745 231.838 135.678C230.955 136.612 229.655 137.079 227.938 137.079Z" fill="white"/>
<path d="M237.728 136.829V123.079H239.978V125.704H240.453L239.978 126.229C239.978 125.145 240.303 124.312 240.953 123.729C241.603 123.129 242.503 122.829 243.653 122.829C245.037 122.829 246.137 123.254 246.953 124.104C247.77 124.953 248.178 126.112 248.178 127.579V136.829H245.928V127.829C245.928 126.845 245.662 126.095 245.128 125.579C244.612 125.045 243.903 124.779 243.003 124.779C242.07 124.779 241.328 125.062 240.778 125.629C240.245 126.195 239.978 127.012 239.978 128.079V136.829H237.728Z" fill="white"/>
<path d="M253.194 136.829V123.079H255.394V125.704H255.919L255.194 127.329C255.194 125.845 255.51 124.729 256.144 123.979C256.794 123.212 257.752 122.829 259.019 122.829C260.469 122.829 261.619 123.287 262.469 124.204C263.335 125.104 263.769 126.329 263.769 127.879V128.704H261.519V128.079C261.519 126.995 261.252 126.17 260.719 125.604C260.202 125.02 259.46 124.729 258.494 124.729C257.544 124.729 256.794 125.02 256.244 125.604C255.71 126.187 255.444 127.012 255.444 128.079V136.829H253.194Z" fill="white"/>
<path d="M272.909 137.079C271.826 137.079 270.876 136.862 270.059 136.428C269.259 135.995 268.634 135.387 268.184 134.604C267.751 133.804 267.534 132.879 267.534 131.829V128.079C267.534 127.012 267.751 126.087 268.184 125.304C268.634 124.52 269.259 123.912 270.059 123.479C270.876 123.045 271.826 122.829 272.909 122.829C273.992 122.829 274.934 123.045 275.734 123.479C276.551 123.912 277.176 124.52 277.609 125.304C278.059 126.087 278.284 127.012 278.284 128.079V130.504H269.734V131.829C269.734 132.912 270.009 133.745 270.559 134.329C271.109 134.895 271.892 135.178 272.909 135.178C273.776 135.178 274.476 135.029 275.009 134.729C275.542 134.412 275.867 133.945 275.984 133.329H278.234C278.084 134.479 277.517 135.395 276.534 136.079C275.567 136.745 274.359 137.079 272.909 137.079ZM276.084 129.004V128.079C276.084 126.995 275.809 126.162 275.259 125.579C274.726 124.995 273.942 124.704 272.909 124.704C271.892 124.704 271.109 124.995 270.559 125.579C270.009 126.162 269.734 126.995 269.734 128.079V128.803H276.259L276.084 129.004Z" fill="white"/>
<path d="M282.699 141.329V123.079H284.949V125.704H285.399L284.949 126.229C284.949 125.179 285.291 124.354 285.974 123.754C286.674 123.137 287.591 122.829 288.724 122.829C290.107 122.829 291.207 123.287 292.024 124.204C292.857 125.104 293.274 126.345 293.274 127.929V131.954C293.274 133.004 293.082 133.912 292.699 134.678C292.332 135.445 291.807 136.037 291.124 136.454C290.457 136.87 289.657 137.079 288.724 137.079C287.607 137.079 286.699 136.77 285.999 136.154C285.299 135.537 284.949 134.712 284.949 133.678L285.399 134.204H284.899L284.949 137.329V141.329H282.699ZM287.974 135.129C288.924 135.129 289.666 134.845 290.199 134.279C290.749 133.712 291.024 132.895 291.024 131.829V128.079C291.024 127.012 290.749 126.195 290.199 125.629C289.666 125.062 288.924 124.779 287.974 124.779C287.057 124.779 286.324 125.07 285.774 125.654C285.224 126.237 284.949 127.045 284.949 128.079V131.829C284.949 132.862 285.224 133.67 285.774 134.254C286.324 134.837 287.057 135.129 287.974 135.129Z" fill="white"/>
<path d="M302.889 137.079C301.806 137.079 300.856 136.862 300.039 136.428C299.239 135.995 298.614 135.387 298.164 134.604C297.731 133.804 297.514 132.879 297.514 131.829V128.079C297.514 127.012 297.731 126.087 298.164 125.304C298.614 124.52 299.239 123.912 300.039 123.479C300.856 123.045 301.806 122.829 302.889 122.829C303.973 122.829 304.914 123.045 305.714 123.479C306.531 123.912 307.156 124.52 307.589 125.304C308.039 126.087 308.264 127.012 308.264 128.079V130.504H299.714V131.829C299.714 132.912 299.989 133.745 300.539 134.329C301.089 134.895 301.873 135.178 302.889 135.178C303.756 135.178 304.456 135.029 304.989 134.729C305.523 134.412 305.848 133.945 305.964 133.329H308.214C308.064 134.479 307.498 135.395 306.514 136.079C305.548 136.745 304.339 137.079 302.889 137.079ZM306.064 129.004V128.079C306.064 126.995 305.789 126.162 305.239 125.579C304.706 124.995 303.923 124.704 302.889 124.704C301.873 124.704 301.089 124.995 300.539 125.579C299.989 126.162 299.714 126.995 299.714 128.079V128.803H306.239L306.064 129.004Z" fill="white"/>
<path d="M316.68 137.079C315.23 137.079 314.088 136.712 313.255 135.979C312.421 135.229 312.005 134.22 312.005 132.954C312.005 131.67 312.421 130.662 313.255 129.928C314.088 129.195 315.213 128.829 316.63 128.829H320.88V127.454C320.88 126.604 320.621 125.954 320.105 125.504C319.605 125.037 318.888 124.804 317.955 124.804C317.138 124.804 316.455 124.979 315.905 125.329C315.355 125.662 315.038 126.12 314.955 126.704H312.705C312.855 125.52 313.413 124.579 314.38 123.879C315.346 123.179 316.555 122.829 318.005 122.829C319.588 122.829 320.838 123.237 321.755 124.054C322.671 124.87 323.13 125.979 323.13 127.379V136.829H320.93V134.204H320.555L320.93 133.829C320.93 134.829 320.538 135.62 319.755 136.204C318.988 136.787 317.963 137.079 316.68 137.079ZM317.23 135.303C318.296 135.303 319.171 135.037 319.855 134.504C320.538 133.97 320.88 133.287 320.88 132.454V130.504H316.68C315.93 130.504 315.338 130.712 314.905 131.129C314.471 131.545 314.255 132.112 314.255 132.829C314.255 133.595 314.513 134.204 315.03 134.654C315.563 135.087 316.296 135.303 317.23 135.303Z" fill="white"/>
<path d="M334.37 136.829C333.186 136.829 332.261 136.512 331.595 135.879C330.945 135.245 330.62 134.354 330.62 133.204V125.129H326.745V123.079H330.62V119.204H332.87V123.079H338.37V125.129H332.87V133.204C332.87 134.254 333.37 134.779 334.37 134.779H338.12V136.829H334.37Z" fill="white"/>
<path d="M346.66 137.079C345.21 137.079 344.068 136.712 343.235 135.979C342.402 135.229 341.985 134.22 341.985 132.954C341.985 131.67 342.402 130.662 343.235 129.928C344.068 129.195 345.193 128.829 346.61 128.829H350.86V127.454C350.86 126.604 350.602 125.954 350.085 125.504C349.585 125.037 348.868 124.804 347.935 124.804C347.118 124.804 346.435 124.979 345.885 125.329C345.335 125.662 345.018 126.12 344.935 126.704H342.685C342.835 125.52 343.393 124.579 344.36 123.879C345.327 123.179 346.535 122.829 347.985 122.829C349.568 122.829 350.818 123.237 351.735 124.054C352.652 124.87 353.11 125.979 353.11 127.379V136.829H350.91V134.204H350.535L350.91 133.829C350.91 134.829 350.518 135.62 349.735 136.204C348.968 136.787 347.943 137.079 346.66 137.079ZM347.21 135.303C348.277 135.303 349.152 135.037 349.835 134.504C350.518 133.97 350.86 133.287 350.86 132.454V130.504H346.66C345.91 130.504 345.318 130.712 344.885 131.129C344.452 131.545 344.235 132.112 344.235 132.829C344.235 133.595 344.493 134.204 345.01 134.654C345.543 135.087 346.277 135.303 347.21 135.303Z" fill="white"/>
<path d="M363.65 137.079C362.517 137.079 361.609 136.778 360.925 136.178C360.242 135.562 359.9 134.728 359.9 133.678L360.35 134.204H359.9V136.829H357.65V118.579H359.9V122.578L359.85 125.704H360.35L359.9 126.229C359.9 125.195 360.242 124.37 360.925 123.754C361.625 123.137 362.534 122.829 363.65 122.829C365.034 122.829 366.142 123.287 366.975 124.204C367.809 125.12 368.225 126.37 368.225 127.954V131.979C368.225 133.545 367.809 134.787 366.975 135.704C366.142 136.62 365.034 137.079 363.65 137.079ZM362.9 135.129C363.85 135.129 364.6 134.845 365.15 134.279C365.7 133.712 365.975 132.895 365.975 131.829V128.079C365.975 127.012 365.7 126.195 365.15 125.629C364.6 125.062 363.85 124.779 362.9 124.779C361.984 124.779 361.25 125.07 360.7 125.654C360.167 126.237 359.9 127.045 359.9 128.079V131.829C359.9 132.862 360.167 133.67 360.7 134.254C361.25 134.837 361.984 135.129 362.9 135.129Z" fill="white"/>
<path d="M379.716 136.829C378.916 136.829 378.216 136.67 377.616 136.354C377.016 136.037 376.549 135.587 376.216 135.004C375.882 134.42 375.716 133.737 375.716 132.954V120.629H371.091V118.579H377.966V132.954C377.966 133.52 378.124 133.97 378.441 134.303C378.757 134.62 379.182 134.779 379.716 134.779H384.091V136.829H379.716Z" fill="white"/>
<path d="M392.831 137.079C391.747 137.079 390.797 136.862 389.981 136.428C389.181 135.995 388.556 135.387 388.106 134.604C387.672 133.804 387.456 132.879 387.456 131.829V128.079C387.456 127.012 387.672 126.087 388.106 125.304C388.556 124.52 389.181 123.912 389.981 123.479C390.797 123.045 391.747 122.829 392.831 122.829C393.914 122.829 394.856 123.045 395.656 123.479C396.472 123.912 397.097 124.52 397.531 125.304C397.981 126.087 398.206 127.012 398.206 128.079V130.504H389.656V131.829C389.656 132.912 389.931 133.745 390.481 134.329C391.031 134.895 391.814 135.178 392.831 135.178C393.697 135.178 394.397 135.029 394.931 134.729C395.464 134.412 395.789 133.945 395.906 133.329H398.156C398.006 134.479 397.439 135.395 396.456 136.079C395.489 136.745 394.281 137.079 392.831 137.079ZM396.006 129.004V128.079C396.006 126.995 395.731 126.162 395.181 125.579C394.647 124.995 393.864 124.704 392.831 124.704C391.814 124.704 391.031 124.995 390.481 125.579C389.931 126.162 389.656 126.995 389.656 128.079V128.803H396.181L396.006 129.004Z" fill="white"/>
<path d="M423.611 137.079C422.478 137.079 421.57 136.778 420.886 136.178C420.203 135.562 419.861 134.728 419.861 133.678L420.311 134.204H419.861V136.829H417.611V118.579H419.861V122.578L419.811 125.704H420.311L419.861 126.229C419.861 125.195 420.203 124.37 420.886 123.754C421.586 123.137 422.495 122.829 423.611 122.829C424.995 122.829 426.103 123.287 426.936 124.204C427.77 125.12 428.186 126.37 428.186 127.954V131.979C428.186 133.545 427.77 134.787 426.936 135.704C426.103 136.62 424.995 137.079 423.611 137.079ZM422.861 135.129C423.811 135.129 424.561 134.845 425.111 134.279C425.661 133.712 425.936 132.895 425.936 131.829V128.079C425.936 127.012 425.661 126.195 425.111 125.629C424.561 125.062 423.811 124.779 422.861 124.779C421.945 124.779 421.211 125.07 420.661 125.654C420.128 126.237 419.861 127.045 419.861 128.079V131.829C419.861 132.862 420.128 133.67 420.661 134.254C421.211 134.837 421.945 135.129 422.861 135.129Z" fill="white"/>
<path d="M434.751 141.329L436.776 135.979L431.676 123.079H434.176L437.376 131.579C437.493 131.862 437.601 132.204 437.701 132.604C437.801 132.987 437.885 133.312 437.951 133.579C438.018 133.312 438.101 132.987 438.201 132.604C438.301 132.204 438.401 131.862 438.501 131.579L441.501 123.079H443.926L437.151 141.329H434.751Z" fill="white"/>
<path d="M466.982 137.079C465.615 137.079 464.507 136.62 463.657 135.704C462.824 134.787 462.407 133.545 462.407 131.979V127.954C462.407 126.37 462.824 125.12 463.657 124.204C464.49 123.287 465.599 122.829 466.982 122.829C468.115 122.829 469.024 123.137 469.707 123.754C470.39 124.37 470.732 125.195 470.732 126.229L470.282 125.704H470.782L470.732 122.578V118.579H472.982V136.829H470.732V134.204H470.282L470.732 133.678C470.732 134.728 470.39 135.562 469.707 136.178C469.024 136.778 468.115 137.079 466.982 137.079ZM467.732 135.129C468.665 135.129 469.399 134.837 469.932 134.254C470.465 133.67 470.732 132.862 470.732 131.829V128.079C470.732 127.045 470.465 126.237 469.932 125.654C469.399 125.07 468.665 124.779 467.732 124.779C466.782 124.779 466.032 125.062 465.482 125.629C464.932 126.195 464.657 127.012 464.657 128.079V131.829C464.657 132.895 464.932 133.712 465.482 134.279C466.032 134.845 466.782 135.129 467.732 135.129Z" fill="white"/>
<path d="M482.772 137.079C481.689 137.079 480.739 136.862 479.922 136.428C479.122 135.995 478.497 135.387 478.047 134.604C477.614 133.804 477.397 132.879 477.397 131.829V128.079C477.397 127.012 477.614 126.087 478.047 125.304C478.497 124.52 479.122 123.912 479.922 123.479C480.739 123.045 481.689 122.829 482.772 122.829C483.855 122.829 484.797 123.045 485.597 123.479C486.414 123.912 487.039 124.52 487.472 125.304C487.922 126.087 488.147 127.012 488.147 128.079V130.504H479.597V131.829C479.597 132.912 479.872 133.745 480.422 134.329C480.972 134.895 481.755 135.178 482.772 135.178C483.639 135.178 484.339 135.029 484.872 134.729C485.406 134.412 485.731 133.945 485.847 133.329H488.097C487.947 134.479 487.38 135.395 486.397 136.079C485.43 136.745 484.222 137.079 482.772 137.079ZM485.947 129.004V128.079C485.947 126.995 485.672 126.162 485.122 125.579C484.589 124.995 483.805 124.704 482.772 124.704C481.755 124.704 480.972 124.995 480.422 125.579C479.872 126.162 479.597 126.995 479.597 128.079V128.803H486.122L485.947 129.004Z" fill="white"/>
<path d="M497.337 137.029C496.404 137.029 495.587 136.887 494.887 136.604C494.204 136.304 493.654 135.887 493.237 135.354C492.837 134.82 492.596 134.187 492.512 133.454H494.762C494.862 133.937 495.129 134.32 495.562 134.604C496.012 134.887 496.604 135.029 497.337 135.029H498.387C499.271 135.029 499.929 134.854 500.362 134.504C500.796 134.137 501.012 133.653 501.012 133.053C501.012 132.47 500.812 132.012 500.412 131.678C500.029 131.328 499.454 131.095 498.687 130.979L496.837 130.678C495.487 130.445 494.479 130.028 493.812 129.428C493.162 128.812 492.837 127.92 492.837 126.754C492.837 125.52 493.229 124.57 494.012 123.904C494.796 123.22 495.971 122.879 497.537 122.879H498.487C499.804 122.879 500.862 123.187 501.662 123.804C502.462 124.42 502.946 125.254 503.112 126.304H500.862C500.762 125.87 500.512 125.529 500.112 125.279C499.712 125.012 499.171 124.879 498.487 124.879H497.537C496.687 124.879 496.062 125.037 495.662 125.354C495.279 125.67 495.087 126.145 495.087 126.779C495.087 127.345 495.254 127.762 495.587 128.029C495.921 128.295 496.446 128.487 497.162 128.604L499.012 128.904C500.496 129.137 501.571 129.57 502.237 130.204C502.921 130.837 503.262 131.754 503.262 132.954C503.262 134.22 502.854 135.22 502.037 135.954C501.237 136.67 500.021 137.029 498.387 137.029H497.337Z" fill="white"/>
<path d="M507.378 136.829V134.779H512.253V125.129H508.003V123.079H514.503V134.779H519.128V136.829H507.378ZM513.128 120.604C512.578 120.604 512.144 120.462 511.828 120.179C511.511 119.895 511.353 119.512 511.353 119.029C511.353 118.529 511.511 118.137 511.828 117.854C512.144 117.554 512.578 117.404 513.128 117.404C513.678 117.404 514.111 117.554 514.428 117.854C514.744 118.137 514.903 118.529 514.903 119.029C514.903 119.512 514.744 119.895 514.428 120.179C514.111 120.462 513.678 120.604 513.128 120.604Z" fill="white"/>
<path d="M524.268 141.329V139.279H528.643C529.343 139.279 529.851 139.12 530.168 138.803C530.501 138.487 530.668 137.995 530.668 137.329V135.579L530.718 133.079H530.268L530.693 132.704C530.693 133.704 530.36 134.495 529.693 135.079C529.026 135.662 528.134 135.954 527.018 135.954C525.601 135.954 524.485 135.495 523.668 134.579C522.851 133.645 522.443 132.395 522.443 130.829V127.929C522.443 126.362 522.851 125.12 523.668 124.204C524.485 123.287 525.601 122.829 527.018 122.829C528.134 122.829 529.026 123.12 529.693 123.704C530.36 124.287 530.693 125.079 530.693 126.079L530.268 125.704H530.693V123.079H532.918V137.329C532.918 138.562 532.534 139.537 531.768 140.254C531.018 140.97 529.968 141.329 528.618 141.329H524.268ZM527.693 134.004C528.626 134.004 529.359 133.712 529.893 133.129C530.426 132.545 530.693 131.737 530.693 130.704V128.079C530.693 127.045 530.426 126.237 529.893 125.654C529.359 125.07 528.626 124.779 527.693 124.779C526.743 124.779 526.001 125.062 525.468 125.629C524.951 126.195 524.693 127.012 524.693 128.079V130.704C524.693 131.77 524.951 132.587 525.468 133.154C526.001 133.72 526.743 134.004 527.693 134.004Z" fill="white"/>
<path d="M537.533 136.829V123.079H539.783V125.704H540.258L539.783 126.229C539.783 125.145 540.108 124.312 540.758 123.729C541.408 123.129 542.308 122.829 543.458 122.829C544.841 122.829 545.941 123.254 546.758 124.104C547.575 124.953 547.983 126.112 547.983 127.579V136.829H545.733V127.829C545.733 126.845 545.466 126.095 544.933 125.579C544.416 125.045 543.708 124.779 542.808 124.779C541.875 124.779 541.133 125.062 540.583 125.629C540.05 126.195 539.783 127.012 539.783 128.079V136.829H537.533Z" fill="white"/>
<path d="M125.44 133.546C125.44 133.546 147.579 135.737 158.305 132.785C169.031 129.833 178.864 124.281 186.931 116.621C194.999 108.961 201.053 99.4299 204.558 88.8714C208.062 78.3129 208.908 67.0531 207.021 56.0894C205.135 45.1257 200.426 34.0959 193.594 25.3162C190.01 20.7106 185.087 15.5047 179.392 11.6171C174.23 8.09364 168.367 5.77965 163.534 3.6296C153.37 -0.892756 135.47 0.0902528 135.47 0.0902528L92.7581 0.0902455C92.7581 0.0902455 104.368 7.23907 110.317 13.3569C115.487 18.6739 121.518 28.4332 121.518 28.4332H137.521C137.521 28.4332 150.406 29.096 156.301 31.7186C162.195 34.3413 167.352 38.3772 171.314 43.4688C175.277 48.5604 177.922 54.5506 179.016 60.9088C180.11 67.267 179.619 73.7969 177.587 79.9201C175.555 86.0432 172.044 91.5707 167.365 96.0129C162.686 100.455 156.984 103.675 150.764 105.387C144.544 107.099 125.44 106.116 125.44 106.116V133.546Z" fill="#FF8400"/>
<path d="M0 57.9606C0 25.9499 25.9498 6.98203e-08 57.9606 6.98203e-08C89.9713 6.98203e-08 115.921 25.9498 115.921 57.9605C115.921 57.9605 115.806 78.3592 115.921 91.4289C116.068 108.06 116.775 134.008 116.775 134.008C116.775 134.008 110.294 131.68 104.31 125.927C100.443 122.209 97.0433 116.166 94.8581 111.407C91.5564 104.216 90.6117 91.4289 90.6117 91.4289C90.6117 91.4289 90.5628 66.9833 89.5159 56.6147C88.6335 47.8759 85.7584 43.5796 83.3517 39.7661C74.448 30.3145 69.5067 28.5337 57.9606 28.5337C50.0656 28.5337 45.2003 29.9918 38.1483 36.4786C34.3901 39.9356 30.6365 44.6394 28.4117 51.7139C25.6715 60.4273 26.916 80.3122 26.916 80.3122C26.916 80.3122 27.6109 94.6927 26.916 100.448C26.2314 106.118 25.6692 109.549 23.0418 114.648C20.1452 120.269 17.3472 123.329 12.5367 127.434C8.49239 130.885 0.615784 134.008 0.615784 134.008L0 91.429C0 91.429 0 89.9713 0 57.9606Z" fill="#FF8400"/>
</svg>
